<svg width="110" height="43" viewBox="0 0 110 43" fill="none" xmlns="http://www.w3.org/2000/svg">
<path d="M109.585 10.9964L104.675 11.1248C104.624 10.7825 104.486 10.4793 104.26 10.2154C104.034 9.94431 103.739 9.73388 103.374 9.58408C103.017 9.42716 102.602 9.34869 102.128 9.34869C101.508 9.34869 100.98 9.46995 100.543 9.71248C100.112 9.95501 99.9011 10.2831 99.9084 10.6969C99.9011 11.0178 100.032 11.296 100.302 11.5314C100.579 11.7668 101.071 11.9559 101.778 12.0985L105.014 12.6977C106.691 13.0116 107.937 13.5323 108.754 14.2599C109.577 14.9874 109.993 15.9504 110 17.1488C109.993 18.2758 109.65 19.2566 108.972 20.0912C108.302 20.9258 107.383 21.5749 106.217 22.0386C105.051 22.4951 103.717 22.7233 102.215 22.7233C99.8173 22.7233 97.9258 22.2419 96.5408 21.2789C95.1632 20.3088 94.376 19.0105 94.1792 17.3842L99.4601 17.2558C99.5767 17.855 99.8792 18.3115 100.368 18.6254C100.856 18.9392 101.479 19.0961 102.237 19.0961C102.922 19.0961 103.48 18.9713 103.91 18.7217C104.34 18.472 104.559 18.1403 104.566 17.7266C104.559 17.3557 104.391 17.0596 104.063 16.8385C103.735 16.6102 103.221 16.4319 102.522 16.3035L99.5913 15.7578C97.9075 15.4582 96.6538 14.9054 95.8302 14.0994C95.0065 13.2862 94.5983 12.2519 94.6056 10.9964C94.5983 9.89794 94.8972 8.95993 95.5022 8.18242C96.1072 7.39777 96.9673 6.79859 98.0825 6.38487C99.1977 5.97114 100.513 5.76428 102.029 5.76428C104.304 5.76428 106.097 6.2315 107.409 7.16595C108.721 8.09326 109.446 9.37009 109.585 10.9964Z" fill="white"/>
<path d="M86.1843 15.3191V5.97827H91.5199V22.4131H86.4248V19.3529H86.2499C85.8781 20.3587 85.244 21.1576 84.3474 21.7497C83.4582 22.3346 82.383 22.6271 81.122 22.6271C79.9777 22.6271 78.9718 22.3703 78.1044 21.8567C77.237 21.3431 76.5628 20.6262 76.0817 19.706C75.6006 18.7787 75.3564 17.6945 75.3491 16.4533V5.97827H80.6956V15.4261C80.7029 16.3178 80.9435 17.0204 81.4172 17.534C81.891 18.0476 82.5361 18.3044 83.3525 18.3044C83.8846 18.3044 84.362 18.1902 84.7848 17.962C85.2148 17.7266 85.5538 17.3877 85.8016 16.9455C86.0567 16.4961 86.1843 15.954 86.1843 15.3191Z" fill="white"/>
<path d="M64.1256 22.7233C62.3616 22.7233 60.8455 22.3703 59.5772 21.6641C58.3162 20.9508 57.3431 19.9593 56.6579 18.6896C55.9801 17.4127 55.6411 15.9326 55.6411 14.2492C55.6411 12.5586 55.9801 11.0785 56.6579 9.80878C57.3431 8.53194 58.3162 7.54044 59.5772 6.83425C60.8455 6.12094 62.3616 5.76428 64.1256 5.76428C65.8895 5.76428 67.402 6.12094 68.663 6.83425C69.9313 7.54044 70.9044 8.53194 71.5822 9.80878C72.2674 11.0785 72.61 12.5586 72.61 14.2492C72.61 15.9326 72.2674 17.4127 71.5822 18.6896C70.9044 19.9593 69.9313 20.9508 68.663 21.6641C67.402 22.3703 65.8895 22.7233 64.1256 22.7233ZM64.1584 18.7751C64.7998 18.7751 65.3428 18.5826 65.7875 18.1974C66.2321 17.8122 66.571 17.2772 66.8043 16.5924C67.0448 15.9076 67.1651 15.1158 67.1651 14.2171C67.1651 13.304 67.0448 12.5051 66.8043 11.8203C66.571 11.1355 66.2321 10.6006 65.7875 10.2154C65.3428 9.83018 64.7998 9.63758 64.1584 9.63758C63.4951 9.63758 62.9338 9.83018 62.4746 10.2154C62.0227 10.6006 61.6764 11.1355 61.4359 11.8203C61.2026 12.5051 61.086 13.304 61.086 14.2171C61.086 15.1158 61.2026 15.9076 61.4359 16.5924C61.6764 17.2772 62.0227 17.8122 62.4746 18.1974C62.9338 18.5826 63.4951 18.7751 64.1584 18.7751Z" fill="white"/>
<path d="M42.119 13.0401V22.4131H36.7725V5.97828H41.8566V8.9956H42.0424C42.4142 7.98983 43.0483 7.20161 43.9449 6.63096C44.8414 6.05318 45.9093 5.76428 47.1484 5.76428C48.3292 5.76428 49.3533 6.02464 50.2207 6.54536C51.0954 7.05895 51.7733 7.7794 52.2544 8.70671C52.7427 9.62688 52.9833 10.704 52.976 11.938V22.4131H47.6295V12.9652C47.6368 12.0522 47.3999 11.3388 46.9188 10.8253C46.445 10.3117 45.7854 10.0549 44.9398 10.0549C44.3786 10.0549 43.8829 10.1761 43.4529 10.4187C43.0301 10.6541 42.7021 10.9929 42.4688 11.4351C42.2429 11.8774 42.1263 12.4124 42.119 13.0401Z" fill="white"/>
<path d="M26.0715 22.7233C24.3149 22.7233 22.7988 22.3845 21.5232 21.7069C20.2549 21.0221 19.2782 20.0484 18.593 18.7858C17.9151 17.5161 17.5762 16.0075 17.5762 14.2599C17.5762 12.5622 17.9188 11.0785 18.6039 9.80878C19.2891 8.53194 20.2549 7.54044 21.5013 6.83425C22.7477 6.12094 24.2165 5.76428 25.9075 5.76428C27.1029 5.76428 28.1963 5.94618 29.1876 6.30997C30.1789 6.67376 31.0354 7.21231 31.757 7.92563C32.4786 8.63894 33.0399 9.51989 33.4408 10.5685C33.8417 11.6099 34.0421 12.8047 34.0421 14.1529V15.4582L19.4458 15.4582V12.4195H29.0673C29.0601 11.8631 28.9252 11.3674 28.6628 10.9322C28.4004 10.4971 28.0396 10.1583 27.5804 9.91578C27.1285 9.66612 26.6073 9.54129 26.0169 9.54129C25.4192 9.54129 24.8834 9.67325 24.4096 9.93718C23.9359 10.194 23.5605 10.5471 23.2835 10.9964C23.0065 11.4387 22.8607 11.9416 22.8461 12.5051V15.5973C22.8461 16.2678 22.981 16.8563 23.2507 17.3628C23.5204 17.8621 23.9031 18.2509 24.3987 18.5291C24.8944 18.8072 25.4848 18.9463 26.1699 18.9463C26.6437 18.9463 27.0738 18.8821 27.4601 18.7537C27.8464 18.6254 28.1781 18.4363 28.4551 18.1867C28.732 17.937 28.9398 17.6303 29.0783 17.2665L33.9874 17.4056C33.7834 18.4827 33.3351 19.4207 32.6426 20.2196C31.9574 21.0114 31.0573 21.6284 29.942 22.0707C28.8268 22.5058 27.5366 22.7233 26.0715 22.7233Z" fill="white"/>
<path d="M8.05565 22.413C3.98876 22.413 0.691895 19.1162 0.691895 15.0493L0.691895 3.20606C0.691895 1.71154 1.90344 0.5 3.39795 0.5C4.89246 0.5 6.10401 1.71154 6.10401 3.20606L6.10401 13.4541C6.10401 16.0264 8.18933 18.1118 10.7617 18.1118H13.2688C14.4565 18.1118 15.4194 19.0746 15.4194 20.2624C15.4194 21.4502 14.4565 22.413 13.2688 22.413H8.05565Z" fill="#14B8A6"/>
<path d="M56.0298 42.4999V30.813H62.3975V31.1782H56.403V36.4739H62.0476V36.8391H56.403V42.1347H62.5608V42.4999H56.0298Z" fill="white"/>
<path d="M44.1329 42.4999H41.0073V30.813H44.4361C45.5363 30.813 46.477 31.0451 47.2584 31.5092C48.0437 31.9695 48.6443 32.6315 49.0603 33.4951C49.4801 34.3586 49.6881 35.3972 49.6842 36.6108C49.6803 37.8548 49.4587 38.9162 49.0194 39.7951C48.584 40.6701 47.9523 41.3396 47.1243 41.8037C46.3001 42.2679 45.303 42.4999 44.1329 42.4999ZM41.3805 42.1347H44.1329C45.2369 42.1347 46.1757 41.916 46.9494 41.4785C47.723 41.0372 48.31 40.4037 48.7104 39.5782C49.1147 38.7527 49.3149 37.7635 49.311 36.6108C49.3071 35.4733 49.1127 34.4994 48.7279 33.6891C48.3469 32.8787 47.7949 32.2586 47.0718 31.8287C46.3487 31.3951 45.4702 31.1782 44.4361 31.1782H41.3805V42.1347Z" fill="white"/>
<path d="M26.6714 42.4999H26.2749L30.5434 30.813H31.0565L35.325 42.4999H34.9284L30.8233 31.2695H30.7766L26.6714 42.4999ZM28.0243 38.1858H33.5756V38.551H28.0243V38.1858Z" fill="white"/>
<path d="M14.2178 42.4999V30.813H17.7165C18.3852 30.813 18.9761 30.9518 19.4892 31.2296C20.0062 31.5073 20.4105 31.8953 20.7021 32.3937C20.9976 32.8921 21.1453 33.476 21.1453 34.1456C21.1453 34.8076 20.9976 35.3877 20.7021 35.8861C20.4105 36.3806 20.0062 36.7668 19.4892 37.0445C18.9761 37.3184 18.3852 37.4554 17.7165 37.4554H14.4044V37.0902H17.7165C18.3152 37.0902 18.8439 36.9684 19.3026 36.7249C19.7613 36.4815 20.1209 36.1391 20.3814 35.6978C20.6418 35.2565 20.7721 34.7391 20.7721 34.1456C20.7721 33.5483 20.6418 33.0271 20.3814 32.582C20.1209 32.1369 19.7613 31.7926 19.3026 31.5491C18.8439 31.3018 18.3152 31.1782 17.7165 31.1782H14.591V42.4999H14.2178ZM18.7661 37.1815L21.7051 42.4999H21.2852L18.3463 37.1815H18.7661Z" fill="white"/>
<path d="M0 31.1782L0 30.813H8.07043V31.1782H4.22181L4.22181 42.4999H3.84861L3.84861 31.1782H0Z" fill="white"/>
</svg>
