<svg width="27" height="28" viewBox="0 0 27 28" fill="none" xmlns="http://www.w3.org/2000/svg">
<g id="Group 520648">
<path id="Vector" d="M17.2837 5.60155C17.2837 5.08981 17.5515 4.62708 17.8612 4.21913C18.1795 3.80109 18.3639 3.30521 18.3639 2.77328C18.3639 1.27987 16.9135 0.0704346 15.1232 0.0704346C13.3329 0.0704346 11.8825 1.28131 11.8825 2.77328C11.8825 3.30521 12.0669 3.80109 12.3852 4.21913C12.6948 4.62708 12.9627 5.08981 12.9627 5.60155C12.9634 5.72515 12.9392 5.84763 12.8916 5.96169C12.844 6.07576 12.774 6.17908 12.6857 6.26554C12.5974 6.352 12.4927 6.41983 12.3777 6.46499C12.2628 6.51015 12.1399 6.53173 12.0165 6.52845C10.0125 6.47067 8.01199 6.32638 6.02047 6.09599C6.28837 8.42116 6.44248 10.7809 6.47417 13.1695C6.4755 13.2948 6.45196 13.4191 6.40489 13.5352C6.35783 13.6513 6.28818 13.7568 6.20001 13.8458C6.11183 13.9347 6.00688 14.0052 5.89125 14.0532C5.77562 14.1011 5.65162 14.1256 5.52645 14.1253C5.01514 14.1253 4.5528 13.8571 4.1452 13.5472C3.73236 13.2245 3.2244 13.0476 2.70057 13.0441C1.20842 13.0441 0 14.4957 0 16.2875C0 18.0793 1.20986 19.531 2.70057 19.531C3.23204 19.531 3.72751 19.3464 4.1452 19.0279C4.5528 18.7179 5.01514 18.4498 5.52645 18.4498C5.97294 18.4498 6.32582 18.8246 6.29269 19.2715C6.11354 21.7156 5.80488 24.1485 5.36801 26.5598C7.5544 26.8337 9.77246 27.0052 12.0165 27.0701C12.1399 27.0734 12.2628 27.0518 12.3777 27.0067C12.4927 26.9615 12.5974 26.8937 12.6857 26.8072C12.774 26.7207 12.844 26.6174 12.8916 26.5034C12.9392 26.3893 12.9634 26.2668 12.9627 26.1432C12.9627 25.6315 12.6948 25.1687 12.3852 24.7608C12.0627 24.3476 11.886 23.8392 11.8825 23.3149C11.8825 21.823 13.3343 20.6121 15.1232 20.6121C16.9135 20.6121 18.3639 21.823 18.3639 23.3149C18.3639 23.8469 18.1795 24.3428 17.8612 24.7608C17.5515 25.1687 17.2851 25.6315 17.2851 26.1432C17.2851 26.6232 17.6841 27.0067 18.1637 26.9793C20.7843 26.825 23.394 26.5218 25.9802 26.0711C26.3715 23.8198 26.6513 21.5505 26.8185 19.2715C26.826 19.1661 26.8117 19.0604 26.7765 18.9608C26.7413 18.8613 26.6859 18.7701 26.6139 18.6929C26.5418 18.6158 26.4546 18.5544 26.3577 18.5125C26.2608 18.4707 26.1563 18.4493 26.0508 18.4498C25.5395 18.4498 25.0771 18.7179 24.6695 19.0279C24.2518 19.3464 23.7564 19.531 23.2249 19.531C21.7342 19.531 20.5243 18.0793 20.5243 16.2875C20.5243 14.4957 21.7342 13.0441 23.2249 13.0441C23.7578 13.0441 24.2518 13.2286 24.6695 13.5472C25.0771 13.8571 25.5395 14.1253 26.0522 14.1253C26.1774 14.1256 26.3014 14.1011 26.417 14.0532C26.5327 14.0052 26.6376 13.9347 26.7258 13.8458C26.814 13.7568 26.8836 13.6513 26.9307 13.5352C26.9777 13.4191 27.0013 13.2948 26.9999 13.1695C26.9653 10.5861 26.7874 8.00664 26.467 5.44298C23.7506 5.93598 20.9795 6.27041 18.1622 6.43619C18.0489 6.44248 17.9354 6.42549 17.8288 6.38627C17.7222 6.34704 17.6248 6.2864 17.5425 6.20809C17.4602 6.12978 17.3948 6.03544 17.3503 5.93088C17.3058 5.82632 17.2831 5.7152 17.2837 5.60155Z" fill="white"/>
<path id="Vector_2" d="M18.3639 23.315C18.3639 23.8469 18.1796 24.3428 17.8613 24.7608C17.5516 25.1688 17.2852 25.6315 17.2852 26.1432C17.2852 26.6233 17.6841 27.0067 18.1637 26.9793C20.7843 26.8251 23.3941 26.5218 25.9803 26.0712C26.3716 23.8198 26.6514 21.5505 26.8185 19.2715C26.8261 19.1662 26.8118 19.0604 26.7766 18.9608C26.7414 18.8613 26.686 18.7701 26.6139 18.6929C26.5418 18.6158 26.4546 18.5544 26.3577 18.5125C26.2608 18.4707 26.1564 18.4494 26.0508 18.4498C25.5395 18.4498 25.0772 18.718 24.6696 19.0279C24.2519 19.3465 23.7564 19.531 23.225 19.531L18.3639 23.315Z" fill="#14B8A6"/>
</g>
</svg>
