<svg xmlns="http://www.w3.org/2000/svg" width="31" height="31" viewBox="0 0 31 31" fill="none" style="&#10;">
<path id="路径" d="M17.583 30.9432C24.8 29.845 30.333 23.5457 30.333 15.9392C30.333 7.55905 23.6172 0.765625 15.333 0.765625C7.04873 0.765625 0.333008 7.55905 0.333008 15.9392C0.333008 23.5457 5.86612 29.845 13.083 30.9432L13.083 20.4912L10.833 20.4912C9.59036 20.4912 8.58301 19.4722 8.58301 18.2152C8.58301 16.9582 9.59036 15.9392 10.833 15.9392L13.083 15.9392L13.083 12.9045C13.083 9.97141 15.4335 7.59372 18.333 7.59372L19.083 7.59372C20.3256 7.59372 21.333 8.61273 21.333 9.86975C21.333 11.1268 20.3256 12.1458 19.083 12.1458L18.333 12.1458C17.9189 12.1458 17.583 12.4855 17.583 12.9045L17.583 15.9392L19.833 15.9392C21.0756 15.9392 22.083 16.9582 22.083 18.2152C22.083 19.4722 21.0756 20.4912 19.833 20.4912L17.583 20.4912L17.583 30.9432Z" fill="white"/>
</svg>