<svg width="42" height="46" viewBox="0 0 42 46" fill="none" xmlns="http://www.w3.org/2000/svg">
<path id="Vector" d="M12.1802 4.04234C14.9799 2.21409 18.2288 1.16927 21.5816 1.01889C24.9343 0.868513 28.2657 1.61821 31.2216 3.1883C34.1776 4.7584 36.6477 7.09024 38.3694 9.936C40.0912 12.7818 41.0002 16.0351 41 19.3504C41 26.4943 39.6229 33.3177 37.1164 39.5785M6.92446 9.23147C4.91222 12.2314 3.84204 15.7517 3.8483 19.3504C3.85413 22.8074 2.86642 26.1951 1 29.1195M5.92632 37.8267C10.5753 32.7699 13.1463 26.1812 13.1362 19.3504C13.1362 16.9171 14.1148 14.5836 15.8566 12.863C17.5984 11.1424 19.9608 10.1758 22.4241 10.1758C24.8875 10.1758 27.2499 11.1424 28.9917 12.863C30.7335 14.5836 31.7121 16.9171 31.7121 19.3504C31.7121 20.6397 31.6601 21.9168 31.5536 23.1792M22.4241 19.3504C22.438 28.0995 19.2743 36.5633 13.5077 43.2042M29.9362 31.9599C28.5951 36.6005 26.5177 41.0019 23.7814 45" stroke="white" stroke-width="2" stroke-linecap="round" stroke-linejoin="round"/>
</svg>
