<svg xmlns="http://www.w3.org/2000/svg" width="34" height="34" viewBox="0 0 34 34" fill="none" style="&#10;    background: gry;&#10;">
<path id="Vector" d="M34 12.5926V13.8519C33.9973 15.9825 33.2239 18.0403 31.8224 19.6452C30.4209 21.25 28.4861 22.2936 26.3752 22.5832C27.2368 23.6858 27.7045 25.0451 27.7037 26.4445V32.7407C27.7037 33.0747 27.571 33.395 27.3349 33.6312C27.0987 33.8673 26.7784 34 26.4444 34H16.3704C16.0364 34 15.7161 33.8673 15.4799 33.6312C15.2438 33.395 15.1111 33.0747 15.1111 32.7407V30.2222H11.3333C9.66345 30.2222 8.06196 29.5589 6.88118 28.3781C5.70039 27.1973 5.03704 25.5958 5.03704 23.9259C5.03704 22.924 4.63902 21.9631 3.93055 21.2546C3.22208 20.5462 2.26119 20.1482 1.25926 20.1482C0.925283 20.1482 0.604985 20.0155 0.368829 19.7793C0.132672 19.5432 0 19.2229 0 18.8889C0 18.5549 0.132672 18.2346 0.368829 17.9985C0.604985 17.7623 0.925283 17.6296 1.25926 17.6296C2.0861 17.6296 2.90485 17.7925 3.66875 18.1089C4.43265 18.4253 5.12675 18.8891 5.71141 19.4738C6.29608 20.0584 6.75986 20.7525 7.07628 21.5164C7.3927 22.2803 7.55556 23.0991 7.55556 23.9259C7.55556 24.9279 7.95357 25.8888 8.66204 26.5972C9.37051 27.3057 10.3314 27.7037 11.3333 27.7037H15.1111V26.4445C15.1103 25.0451 15.578 23.6858 16.4396 22.5832C14.3287 22.2936 12.3939 21.25 10.9924 19.6452C9.59094 18.0403 8.81746 15.9825 8.81481 13.8519V12.5926C8.83049 11.0276 9.24726 9.49281 10.0253 8.13483C9.64037 6.89319 9.5169 5.58528 9.66266 4.29355C9.80841 3.00182 10.2202 1.7543 10.8721 0.62965C10.9827 0.438177 11.1417 0.279184 11.3332 0.168659C11.5247 0.0581331 11.7419 -2.90469e-05 11.963 2.06067e-05C13.4297 -0.0030495 14.8768 0.336973 16.1887 0.992921C17.5006 1.64887 18.6409 2.60256 19.5185 3.7778H23.2963C24.1739 2.60256 25.3142 1.64887 26.6261 0.992921C27.938 0.336973 29.3851 -0.0030495 30.8519 2.06067e-05C31.0729 -2.90469e-05 31.2902 0.0581331 31.4816 0.168659C31.6731 0.279184 31.8321 0.438177 31.9427 0.62965C32.5947 1.75427 33.0064 3.00186 33.1519 4.29365C33.2974 5.58544 33.1735 6.89336 32.788 8.13483C33.5675 9.49228 33.9848 11.0273 34 12.5926Z" fill="white"/>
</svg>