<svg width="26" height="24" viewBox="0 0 26 24" fill="none" xmlns="http://www.w3.org/2000/svg">
<g id="Group 520642">
<path id="Vector" d="M23.6155 4.71771C23.6155 2.64644 22.1386 0.851158 20.077 0.584103C17.4242 0.241392 14.752 0.0698129 12.077 0.0704363C9.3655 0.0704363 6.69498 0.245492 4.07704 0.584103C2.0155 0.851158 0.538574 2.64644 0.538574 4.71771V12.6732C0.538574 14.7444 2.0155 16.5397 4.07704 16.8068C4.81678 16.9026 5.56037 16.9857 6.30781 17.0547V23.0704L11.6347 17.7613" fill="white"/>
<path id="Vector_2" d="M26.0001 10.5844C26.0001 9.34621 25.2104 8.26777 24.077 7.90488C23.8789 7.84133 23.6742 7.8006 23.4668 7.78349C20.0333 7.49942 16.5822 7.49942 13.1488 7.78349C11.6988 7.9036 10.6155 9.1341 10.6155 10.5844V16.0609C10.6155 17.1304 11.2052 18.0798 12.0962 18.5539C12.4239 18.728 12.7839 18.8333 13.1539 18.8631C14.8539 19.0011 16.5719 19.0714 18.3078 19.0714L22.1539 22.9047V18.9551C22.5898 18.9295 23.0257 18.8976 23.4616 18.8631C24.9142 18.7443 26.0001 17.5125 26.0001 16.0609V10.5844Z" fill="#14B8A6"/>
</g>
</svg>
