<svg width="25" height="26" viewBox="0 0 25 26" fill="none" xmlns="http://www.w3.org/2000/svg">
<g id="Group 520643">
<path id="Vector" d="M3.27273 10.3886H6.54545C7.41344 10.3886 8.24587 10.0438 8.85962 9.43006C9.47338 8.8163 9.81818 7.98387 9.81818 7.11589V3.84316C9.81818 2.97518 9.47338 2.14275 8.85962 1.52899C8.24587 0.915239 7.41344 0.570435 6.54545 0.570435H3.27273C2.40475 0.570435 1.57232 0.915239 0.95856 1.52899C0.344805 2.14275 0 2.97518 0 3.84316V7.11589C0 7.98387 0.344805 8.8163 0.95856 9.43006C1.57232 10.0438 2.40475 10.3886 3.27273 10.3886ZM3.27273 24.5704H6.54545C7.41344 24.5704 8.24587 24.2256 8.85962 23.6119C9.47338 22.9981 9.81818 22.1657 9.81818 21.2977V18.025C9.81818 17.157 9.47338 16.3246 8.85962 15.7108C8.24587 15.0971 7.41344 14.7523 6.54545 14.7523H3.27273C2.40475 14.7523 1.57232 15.0971 0.95856 15.7108C0.344805 16.3246 0 17.157 0 18.025V21.2977C0 22.1657 0.344805 22.9981 0.95856 23.6119C1.57232 24.2256 2.40475 24.5704 3.27273 24.5704ZM17.4545 10.3886H20.7273C21.5953 10.3886 22.4277 10.0438 23.0414 9.43006C23.6552 8.8163 24 7.98387 24 7.11589V3.84316C24 2.97518 23.6552 2.14275 23.0414 1.52899C22.4277 0.915239 21.5953 0.570435 20.7273 0.570435H17.4545C16.5866 0.570435 15.7541 0.915239 15.1404 1.52899C14.5266 2.14275 14.1818 2.97518 14.1818 3.84316V7.11589C14.1818 7.98387 14.5266 8.8163 15.1404 9.43006C15.7541 10.0438 16.5866 10.3886 17.4545 10.3886Z" fill="white"/>
<path id="Vector_2" d="M14.1819 19.4795H19.091M19.091 19.4795H24.0001M19.091 19.4795V14.5704M19.091 19.4795V24.3886" stroke="#14B8A6" stroke-width="2" stroke-linecap="round" stroke-linejoin="round"/>
</g>
</svg>
