<svg xmlns="http://www.w3.org/2000/svg" width="24" height="25" viewBox="0 0 24 25" fill="none">
<path d="M24 13.5037C22.1998 14.7428 20.0225 15.3122 17.8462 15.113C15.6698 14.9138 13.632 13.9586 12.0867 12.4133C10.5414 10.868 9.58619 8.83016 9.38699 6.65384C9.18779 4.47752 9.75719 2.30018 10.9963 0.5C8.71432 0.695393 6.53565 1.53858 4.71668 2.93031C2.89771 4.32205 1.51415 6.20442 0.728821 8.3559C-0.0565062 10.5074 -0.210915 12.8384 0.283767 15.0747C0.77845 17.3109 1.90164 19.3594 3.52114 20.9789C5.14064 22.5984 7.18906 23.7215 9.42533 24.2162C11.6616 24.7109 13.9926 24.5565 16.1441 23.7712C18.2956 22.9858 20.1779 21.6023 21.5697 19.7833C22.9614 17.9643 23.8046 15.7857 24 13.5037Z" fill="#14B8A6"/>
</svg>