<svg width="46" height="42" viewBox="0 0 46 42" fill="none" xmlns="http://www.w3.org/2000/svg">
<path id="Vector" d="M25.6154 17.9231V10.2308C25.6154 7.78262 26.5879 5.43473 28.319 3.70363C30.0501 1.97252 32.398 1 34.8462 1C37.2943 1 39.6422 1.97252 41.3733 3.70363C43.1044 5.43473 44.0769 7.78262 44.0769 10.2308V17.9231M5.61538 41H27.1538C28.3779 41 29.5519 40.5137 30.4174 39.6482C31.283 38.7826 31.7692 37.6087 31.7692 36.3846V22.5385C31.7692 21.3144 31.283 20.1404 30.4174 19.2749C29.5519 18.4093 28.3779 17.9231 27.1538 17.9231H5.61538C4.39131 17.9231 3.21737 18.4093 2.35181 19.2749C1.48626 20.1404 1 21.3144 1 22.5385V36.3846C1 37.6087 1.48626 38.7826 2.35181 39.6482C3.21737 40.5137 4.39131 41 5.61538 41Z" stroke="white" stroke-width="2" stroke-linecap="round" stroke-linejoin="round"/>
</svg>
