<svg xmlns="http://www.w3.org/2000/svg" width="50" height="51" viewBox="0 0 50 51" fill="none">
<g id="Plus">
<path id="Vector" d="M39.5836 24.9796V26.0211C39.5836 26.5964 39.1174 27.0628 38.542 27.0628H26.5628V39.0421C26.5628 39.6172 26.0964 40.0836 25.5211 40.0836H24.4795C23.9042 40.0836 23.4378 39.6172 23.4378 39.0421V27.0628H11.4587C10.8834 27.0628 10.417 26.5964 10.417 26.0211V24.9796C10.417 24.4042 10.8834 23.9378 11.4587 23.9378H23.4378V11.9586C23.4378 11.3834 23.9042 10.917 24.4795 10.917H25.5211C26.0964 10.917 26.5628 11.3834 26.5628 11.9586V23.9378H38.542C39.1174 23.9378 39.5836 24.4042 39.5836 24.9796Z" fill="#AAAAAA"/>
</g>
</svg>