<svg xmlns="http://www.w3.org/2000/svg" width="17" height="26" viewBox="0 0 17 26" fill="none" style="&#10;    /* background: red; */&#10;">
<path d="M8.432 0.119998C10.88 0.119998 12.836 0.791998 14.3 2.136C15.788 3.48 16.532 5.316 16.532 7.644C16.532 10.068 15.764 11.892 14.228 13.116C12.692 14.34 10.652 14.952 8.108 14.952L7.964 17.796H4.4L4.22 12.144H5.408C7.736 12.144 9.512 11.832 10.736 11.208C11.984 10.584 12.608 9.396 12.608 7.644C12.608 6.372 12.236 5.376 11.492 4.656C10.772 3.936 9.764 3.576 8.468 3.576C7.172 3.576 6.152 3.924 5.408 4.62C4.664 5.316 4.292 6.288 4.292 7.536H0.44C0.44 6.096 0.764 4.812 1.412 3.684C2.06 2.556 2.984 1.68 4.184 1.056C5.408 0.431999 6.824 0.119998 8.432 0.119998ZM6.128 25.752C5.384 25.752 4.76 25.5 4.256 24.996C3.752 24.492 3.5 23.868 3.5 23.124C3.5 22.38 3.752 21.756 4.256 21.252C4.76 20.748 5.384 20.496 6.128 20.496C6.848 20.496 7.46 20.748 7.964 21.252C8.468 21.756 8.72 22.38 8.72 23.124C8.72 23.868 8.468 24.492 7.964 24.996C7.46 25.5 6.848 25.752 6.128 25.752Z" fill="white"/>
</svg>