<svg xmlns="http://www.w3.org/2000/svg" width="24" height="25" viewBox="0 0 24 25" fill="none" style="&#10;    /* background: gray; */&#10;">
<path id="Vector" fill-rule="evenodd" clip-rule="evenodd" d="M14.4 2.0226C14.4 1.18169 13.7183 0.5 12.8774 0.5H11.1226C10.2817 0.5 9.6 1.18168 9.6 2.02257C9.6 2.7172 9.12445 3.31191 8.47821 3.56661C8.37573 3.60699 8.27411 3.6491 8.17338 3.69288C7.53634 3.96977 6.77934 3.88552 6.28851 3.39401C5.69483 2.7995 4.7315 2.79916 4.1374 3.39326L2.89383 4.63684C2.29936 5.23131 2.29953 6.19519 2.8942 6.78945C3.38568 7.28059 3.46992 8.0377 3.19288 8.67489C3.14906 8.77567 3.10699 8.8772 3.06668 8.97943C2.81186 9.62568 2.21711 10.1013 1.52244 10.1013C0.681621 10.1013 0 10.783 0 11.6238V13.3788C0 14.2197 0.68168 14.9013 1.52257 14.9013C2.2172 14.9013 2.81191 15.3769 3.06661 16.0231C3.10704 16.1257 3.1492 16.2275 3.19304 16.3283C3.46984 16.9651 3.38548 17.7218 2.89401 18.2122C2.29956 18.8055 2.29905 19.7684 2.89288 20.3622L4.13569 21.605C4.73006 22.1994 5.69377 22.1992 6.28793 21.6046C6.77914 21.1131 7.53639 21.029 8.17367 21.3061C8.27403 21.3497 8.37527 21.3917 8.47738 21.432C9.12399 21.6869 9.6 22.2819 9.6 22.9769C9.6 23.8181 10.2819 24.5 11.1231 24.5H12.8776C13.7184 24.5 14.4 23.8184 14.4 22.9776C14.4 22.2829 14.8757 21.6881 15.5219 21.4333C15.6241 21.393 15.7257 21.3509 15.8264 21.3071C16.4636 21.0301 17.2207 21.1143 17.7119 21.6058C18.3061 22.2005 19.27 22.2006 19.8645 21.6062L21.1058 20.3648C21.7005 19.7701 21.7005 18.8059 21.1058 18.2112C20.6143 17.7196 20.5302 16.9622 20.8074 16.3248C20.851 16.2244 20.8929 16.1234 20.9331 16.0216C21.188 15.3755 21.7828 14.9 22.4773 14.9C23.3183 14.9 24 14.2183 24 13.3773V11.6225C24 10.7816 23.3184 10.1 22.4775 10.1C21.7829 10.1 21.1881 9.62436 20.9333 8.97812C20.893 8.87587 20.8509 8.77434 20.8071 8.67355C20.5301 8.03636 20.6143 7.27926 21.1058 6.78813C21.7005 6.19386 21.7006 5.22997 21.1062 4.63549L19.8648 3.39414C19.2701 2.79944 18.3059 2.79944 17.7112 3.39414C17.2197 3.88567 16.4622 3.96976 15.8247 3.69254C15.7244 3.64892 15.6234 3.60704 15.5217 3.56689C14.8755 3.31195 14.4 2.71722 14.4 2.0226ZM8.4 12.5C8.4 11.5452 8.77929 10.6295 9.45442 9.95442C10.1295 9.27929 11.0452 8.9 12 8.9C12.9548 8.9 13.8705 9.27929 14.5456 9.95442C15.2207 10.6295 15.6 11.5452 15.6 12.5C15.6 13.4548 15.2207 14.3705 14.5456 15.0456C13.8705 15.7207 12.9548 16.1 12 16.1C11.0452 16.1 10.1295 15.7207 9.45442 15.0456C8.77929 14.3705 8.4 13.4548 8.4 12.5Z" fill="white"/>
</svg>