<svg width="27" height="24" viewBox="0 0 27 24" fill="none" xmlns="http://www.w3.org/2000/svg">
<g id="Vector">
<path d="M10.0909 8.07043V3.69543C10.0909 2.99924 10.4501 2.33156 11.0894 1.83928C11.7287 1.347 12.5959 1.07043 13.5 1.07043H22.5909C23.4951 1.07043 24.3622 1.347 25.0015 1.83928C25.6408 2.33156 26 2.99924 26 3.69543V19.4454C26 20.1416 25.6408 20.8093 25.0015 21.3016C24.3622 21.7939 23.4951 22.0704 22.5909 22.0704H13.5C12.5959 22.0704 11.7287 21.7939 11.0894 21.3016C10.4501 20.8093 10.0909 20.1416 10.0909 19.4454V15.0704M15.7727 8.07043L20.3182 11.5704L15.7727 8.07043ZM20.3182 11.5704L15.7727 15.0704L20.3182 11.5704ZM20.3182 11.5704H1H20.3182Z" fill="white"/>
<path d="M10.0909 8.07043V3.69543C10.0909 2.99924 10.4501 2.33156 11.0894 1.83928C11.7287 1.347 12.5959 1.07043 13.5 1.07043H22.5909C23.4951 1.07043 24.3622 1.347 25.0015 1.83928C25.6408 2.33156 26 2.99924 26 3.69543V19.4454C26 20.1416 25.6408 20.8093 25.0015 21.3016C24.3622 21.7939 23.4951 22.0704 22.5909 22.0704H13.5C12.5959 22.0704 11.7287 21.7939 11.0894 21.3016C10.4501 20.8093 10.0909 20.1416 10.0909 19.4454V15.0704M15.7727 8.07043L20.3182 11.5704M20.3182 11.5704L15.7727 15.0704M20.3182 11.5704H1" stroke="#14B8A6" stroke-width="2" stroke-linecap="round" stroke-linejoin="round"/>
</g>
</svg>
