<svg width="47" height="47" viewBox="0 0 47 47" fill="none" xmlns="http://www.w3.org/2000/svg">
<path id="Vector" d="M16 25.375L21.625 31L31 17.875M46 23.5C46 26.4547 45.418 29.3806 44.2873 32.1104C43.1566 34.8402 41.4992 37.3206 39.4099 39.4099C37.3206 41.4992 34.8402 43.1566 32.1104 44.2873C29.3806 45.418 26.4547 46 23.5 46C20.5453 46 17.6194 45.418 14.8896 44.2873C12.1598 43.1566 9.67942 41.4992 7.5901 39.4099C5.50078 37.3206 3.84344 34.8402 2.71271 32.1104C1.58198 29.3806 1 26.4547 1 23.5C1 17.5326 3.37053 11.8097 7.5901 7.5901C11.8097 3.37053 17.5326 1 23.5 1C29.4674 1 35.1903 3.37053 39.4099 7.5901C43.6295 11.8097 46 17.5326 46 23.5Z" stroke="white" stroke-width="2" stroke-linecap="round" stroke-linejoin="round"/>
</svg>
