<svg xmlns="http://www.w3.org/2000/svg" width="31" height="30" viewBox="0 0 31 30" fill="none">
<path id="Vector" d="M15.5 10.3333V16.1667M29.5 15C29.5 16.8385 29.1379 18.659 28.4343 20.3576C27.7307 22.0561 26.6995 23.5995 25.3995 24.8995C24.0995 26.1995 22.5561 27.2307 20.8576 27.9343C19.159 28.6379 17.3385 29 15.5 29C13.6615 29 11.841 28.6379 10.1424 27.9343C8.44387 27.2307 6.90053 26.1995 5.6005 24.8995C4.30048 23.5995 3.26925 22.0561 2.56569 20.3576C1.86212 18.659 1.5 16.8385 1.5 15C1.5 11.287 2.975 7.72601 5.6005 5.10051C8.22601 2.475 11.787 1 15.5 1C19.213 1 22.774 2.475 25.3995 5.10051C28.025 7.72601 29.5 11.287 29.5 15ZM15.5 20.8333H15.5124V20.8458H15.5V20.8333Z" stroke="#EAB308" stroke-width="2" stroke-linecap="round" stroke-linejoin="round"/>
</svg>