<svg xmlns="http://www.w3.org/2000/svg" width="25" height="25" viewBox="0 0 25 25" fill="none" style="&#10;    /* background: green; */&#10;">
<path fill-rule="evenodd" clip-rule="evenodd" d="M17.0294 24.3631C19.1314 23.5479 20.9788 22.1818 22.3802 20.4063C23.7816 18.6308 24.6861 16.5104 25 14.2647H19.4722C19.266 18.3024 18.3602 21.8713 17.0308 24.3631H17.0294ZM15.9679 14.2647C15.7183 20.0558 14.2613 24.5 12.5 24.5C10.7387 24.5 9.28175 20.0558 9.03214 14.2647H15.9679ZM15.9679 10.7353H9.03214C9.28175 4.94423 10.7387 0.5 12.5 0.5C14.2613 0.5 15.7183 4.94423 15.9679 10.7353ZM19.4722 10.7353H25C24.6864 8.48971 23.7821 6.36937 22.381 4.59385C20.9798 2.81833 19.1326 1.4522 17.0308 0.636941C18.3602 3.12871 19.266 6.69765 19.4722 10.7353ZM5.53904 10.7353C5.74518 6.69482 6.65105 3.12306 7.98323 0.632706C5.87819 1.44627 4.02777 2.81216 2.62398 4.58862C1.22019 6.36508 0.314193 8.48738 0 10.7353H5.53904ZM5.53904 14.2647H0C0.313959 16.5129 1.21985 18.6355 2.62365 20.4122C4.02746 22.1889 5.87801 23.555 7.98323 24.3687C6.65105 21.8769 5.74518 18.3052 5.53904 14.2647Z" fill="white"/>
</svg>