<svg xmlns="http://www.w3.org/2000/svg" width="31" height="27" viewBox="0 0 31 27" fill="none" >
<path id="路径" d="M2.84946 1.67123C3.43233 1.60333 4.00479 1.86405 4.3359 2.34818C6.66545 5.75451 9.46347 7.17153 12.5681 7.49392C12.7205 6.16663 13.0789 4.85518 13.7527 3.70056C14.7409 2.00648 16.3483 0.759268 18.6444 0.298403C21.8171 -0.338425 24.2329 0.809791 25.6347 2.21601L28.4639 1.68748C29.0683 1.5746 29.6831 1.82248 30.04 2.3228C30.3967 2.82311 30.4305 3.48487 30.1263 4.01883L27.4113 8.78728C27.6589 15.669 25.7452 20.4716 21.6651 23.7804C19.5007 25.5354 16.4035 26.5309 13.0039 26.8383C9.57771 27.148 5.70482 26.7734 1.85484 25.65C1.17939 25.4529 0.715972 24.833 0.718467 24.1299C0.720946 23.4266 1.18872 22.81 1.86554 22.6176C3.80168 22.0674 5.27531 21.5917 6.60739 20.761C4.71509 19.757 3.32078 18.4445 2.33395 16.9482C0.962367 14.8684 0.453772 12.5499 0.352798 10.4587C0.25184 8.36779 0.554209 6.43118 0.872667 5.03345C1.05395 4.23779 1.26568 3.43843 1.55754 2.67482C1.76951 2.12446 2.26661 1.73914 2.84946 1.67123Z" fill="white"/>
</svg>