<svg xmlns="http://www.w3.org/2000/svg" width="38" height="38" viewBox="0 0 38 38" fill="none">
<g id="Clip path group">
<mask id="mask0_560_3479" style="mask-type:luminance" maskUnits="userSpaceOnUse" x="0" y="0" width="38" height="38">
<g id="clip0_590_2138">
<path id="Vector" d="M38 0H0V38H38V0Z" fill="white"/>
</g>
</mask>
<g mask="url(#mask0_560_3479)">
<g id="Group">
<path id="Vector_2" d="M15.8334 25.3329V14.2497L25.3334 19.8103L15.8334 25.3329ZM37.62 12.1391C37.62 12.1391 37.2479 9.50283 36.1095 8.34067C34.6639 6.81592 33.0441 6.80958 32.3016 6.72092C26.9848 6.33301 19.0079 6.33301 19.0079 6.33301H18.9921C18.9921 6.33301 11.0153 6.33301 5.69841 6.72092C4.95425 6.80958 3.33609 6.81592 1.88891 8.34067C0.7505 9.50283 0.38 12.1407 0.38 12.1407C0.38 12.1407 0 15.2344 0 18.3299V21.2353C0 24.3323 0.38 27.4293 0.38 27.4293C0.38 27.4293 0.7505 30.0656 1.88891 31.2277C3.33609 32.7524 5.2345 32.7034 6.08 32.8633C9.12 33.1594 19 33.2497 19 33.2497C19 33.2497 26.9848 33.2369 32.3016 32.8507C33.0457 32.7604 34.6639 32.7541 36.1095 31.2293C37.2495 30.0672 37.62 27.4293 37.62 27.4293C37.62 27.4293 38 24.3339 38 21.2369V18.3331C38 15.2361 37.62 12.1391 37.62 12.1391Z" fill="white"/>
</g>
</g>
</g>
</svg>